- 
http://www.Speed.Cd      fast  and The Hottest Private Tracker on the net

(((--Submit for invite!!--)))

Please Seed back to make the speed Faster!!!

------------------nfo--------------------------
-[img]http://img705.imageshack.us/img705/664/qwerertyuii.png[/img]

[size=5][color=blue]
The Expendables 2010 Extended DC BRRip AC3-5.1 SeT-CM8[/color][/size]

[size=4][color=blue]A team of mercenaries is given the assignment to take out a corrupt military leader and a rogue CIA operative on a Latin American island. [/color][/size]


[url]http://www.imdb.com/title/tt1320253/[/url]

[color=blue]Source: The.Expendables.2010.EXTENDED.DC.720p.BluRay.x264-NODLABS  Thank you[/color]

[size=5][color=blue]CM8 Doing It Right The First Time[/color][/size] :D

General
Complete name                    :The.Expendables.2010.Extended.DC.BBRip.AC3-5.1.SeT-CM8.avi
Format                           : AVI
Format/Info                      : Audio Video Interleave
File size                        : 1.59 GiB
Duration                         : 1h 53mn
Overall bit rate                 : 2 014 Kbps

Video
ID                               : 0
Format                           : xvid
Codec ID                         : xvid
Duration                         : 1h 53mn
Bit rate                         : 1 684 Kbps
Width                            : 720 pixels
Height                           : 304 pixels
Display aspect ratio             : 2.35:1
Frame rate                       : 23.976 fps
Bits/(Pixel*Frame)               : 0.321
Stream size                      : 1.33 GiB (84%)

Audio
ID                               : 1
Format                           : AC-3
Format/Info                      : Audio Coding 3
Mode extension                   : CM (complete main)
Codec ID                         : 2000
Duration                         : 1h 53mn
Bit rate mode                    : Constant
Bit rate                         : 320 Kbps
Channel(s)                       : 6 channels
Channel positions                : Front: L C R, Side: L R, LFE
Sampling rate                    : 48.0 KHz
Bit depth                        : 16 bits
Compression mode                 : Lossy
Stream size                      : 259 MiB (16%)
Alignment                        : Aligned on interleaves
Interleave, duration             : 42 ms (1.00 video frame)

[img]http://img847.imageshack.us/img847/6114/kjhyuikmnbgh.png[/img]
[img]http://img716.imageshack.us/img716/1080/wsazxcfdsx.png[/img]
[img]http://img37.imageshack.us/img37/928/ytgfdertgf.png[/img]
[img]http://img825.imageshack.us/img825/3263/drtygfvbnjuik.png[/img]
[img]http://img20.imageshack.us/img20/2263/fghjuytr.png[/img]
[img]http://img825.imageshack.us/img825/406/lopoikjm.png[/img]
[img]http://img841.imageshack.us/img841/7839/wsazxcderf.png[/img]
[img]http://img545.imageshack.us/img545/4048/zaqwsxcd.png[/img]
[img]http://img201.imageshack.us/img201/4981/zxcvbnmmmmmkkj.png[/img]
[img]http://img641.imageshack.us/img641/9192/asdfghjkly.png[/img]
[img]http://img542.imageshack.us/img542/5874/qwertyuiopl.png[/img]



Notes
K, first of i must say " i love this movie" and now its even better with an extra 10 mins of footage, Yes ladies and gentlemen , An extra 10 mins. Also kept the 5.1 track.
Video and Audio are at a very nice high bitrate for your viewing pleasure.

Enjoy  ;)


[size=4][color=blue]LOOKING FOR ANYTHING YOU WANT TO LOOK AND SOUND BETTER

CM8@hushmail.com[/color][/size]


big shout out to my Homies Mr Hive , Sir Unevano, Super TED, Pinny and Mr Simmo.
Greets to SAiNTS,DTRG,SANTi,BDK, THC,SAFC, SiC, AMIABLE and mSD
 all the other Legends out there Past and Present..